<?xml version="1.0" encoding="utf-8"?>
<svg width="800px" height="600px"
 xmlns="http://www.w3.org/2000/svg"
 xmlns:xhtml="http://www.w3.org/1999/xhtml"
 xmlns:xlink="http://www.w3.org/1999/xlink"
 xmlns:a="http://www.adobe.com/svg10-extensions" a:timeline="independent"
 onload="top.load(evt)">

 <defs>

  <xhtml:audio id="shoot" src="shoot.wav" begin="indefinite"/>
  <xhtml:audio id="win" src="win.wav" begin="indefinite"/>
  <xhtml:audio id="die" src="die.mp3" begin="indefinite"/>
  <xhtml:audio id="kill" src="kill.mp3" begin="indefinite"/>
  <xhtml:audio id="bgm" src="bgm.wav" begin="indefinite"/>

  <g id="thePlayer">
           <path fill="grey" stroke="white" stroke-width="1"
	           d="M 14.00,4.00
	              C 14.00,4.00 14.00,15.00 14.00,15.00
	                14.00,15.00 3.00,15.00 3.00,15.00
	                3.28,7.09 6.09,4.28 14.00,4.00 Z 
	               M 5.00,9.00
		       	              C 5.00,9.00 6.00,10.00 6.00,10.00
		       	                6.00,10.00 6.00,9.00 6.00,9.00
		       	                6.00,9.00 5.00,9.00 5.00,9.00 Z
		       	              M 9.00,16.00
		       	              C 9.00,16.00 8.00,17.00 8.00,17.00
		       	                8.00,17.00 8.00,16.00 8.00,16.00
		       	                8.00,16.00 9.00,16.00 9.00,16.00 Z
		       	              M 14.00,19.00
		       	              C 14.00,19.00 14.00,31.00 14.00,31.00
		       	                14.00,31.00 3.00,31.00 3.00,31.00
		       	                3.00,31.00 3.00,19.00 3.00,19.00
		       	                3.00,19.00 14.00,19.00 14.00,19.00 Z
		       	              M 7.00,22.00
		       	              C 7.00,22.00 8.00,23.00 8.00,23.00
		       	                8.00,23.00 8.00,22.00 8.00,22.00
		       	                8.00,22.00 7.00,22.00 7.00,22.00 Z
		       	              M 6.00,23.00
		       	              C 6.00,23.00 7.00,24.00 7.00,24.00
		       	                7.00,24.00 7.00,23.00 7.00,23.00
		       	                7.00,23.00 6.00,23.00 6.00,23.00 Z
		       	              M 5.00,24.00
		       	              C 5.00,24.00 6.00,25.00 6.00,25.00
		       	                6.00,25.00 6.00,24.00 6.00,24.00
		       	                6.00,24.00 5.00,24.00 5.00,24.00 Z
		       	              M 8.00,24.00
		       	              C 8.00,24.00 9.00,25.00 9.00,25.00
		       	                9.00,25.00 9.00,24.00 9.00,24.00
		       	                9.00,24.00 8.00,24.00 8.00,24.00 Z
		       	              M 16.00,27.00
		       	              C 16.00,27.00 15.00,23.00 15.00,23.00
		       	                15.00,23.00 16.00,27.00 16.00,27.00 Z
		       	              M 4.00,25.00
		       	              C 4.00,25.00 5.00,26.00 5.00,26.00
		       	                5.00,26.00 5.00,25.00 5.00,25.00
		       	                5.00,25.00 4.00,25.00 4.00,25.00 Z
		       	              M 7.00,25.00
		       	              C 7.00,25.00 8.00,26.00 8.00,26.00
		       	                8.00,26.00 8.00,25.00 8.00,25.00
		       	                8.00,25.00 7.00,25.00 7.00,25.00 Z
		       	              M 6.00,26.00
		       	              C 6.00,26.00 7.00,27.00 7.00,27.00
		       	                7.00,27.00 7.00,26.00 7.00,26.00
		       	                7.00,26.00 6.00,26.00 6.00,26.00 Z
		       	              M 5.00,27.00
		       	              C 5.00,27.00 6.00,28.00 6.00,28.00
		       	                6.00,28.00 6.00,27.00 6.00,27.00
		       	                6.00,27.00 5.00,27.00 5.00,27.00 Z
		       	              M 4.00,28.00
		       	              C 4.00,28.00 5.00,29.00 5.00,29.00
		       	                5.00,29.00 5.00,28.00 5.00,28.00
		       	                5.00,28.00 4.00,28.00 4.00,28.00 Z
		       	              M 8.00,32.00
		       	              C 8.00,32.00 8.00,37.00 8.00,37.00
		       	                8.00,37.00 6.00,37.00 6.00,37.00
		       	                6.00,37.00 6.00,32.00 6.00,32.00
		       	                6.00,32.00 8.00,32.00 8.00,32.00 Z
		       	              M 11.00,32.00
		       	              C 11.00,32.00 11.00,37.00 11.00,37.00
		       	                11.00,37.00 9.00,37.00 9.00,37.00
		       	                9.00,37.00 9.00,32.00 9.00,32.00
             9.00,32.00 11.00,32.00 11.00,32.00 Z" />
	                
	  <path 
	  	           fill="red" stroke="blue" stroke-width="1"
	           d="M 7.00,12.00
	              C 7.00,12.00 4.00,10.00 4.00,10.00
	                5.13,12.71 5.13,12.45 8.00,13.00
	                8.00,13.00 7.00,8.00 7.00,8.00
	                7.00,8.00 7.00,12.00 7.00,12.00 Z"/>
	   
             </g>
  
  
  
  <g id="theMonster">
         
        <path fill="white" stroke="black" stroke-width="1"
            d="M 14.00,36.33
               C 11.68,36.82 6.68,37.70 5.06,35.40
                 3.34,32.94 6.16,28.33 7.21,26.00
                 10.45,18.80 12.64,7.17 22.00,5.52
                 35.20,3.19 42.03,18.58 33.00,24.00
                 31.49,31.94 20.99,34.85 14.00,36.33 Z"/>
         <path  fill="red" stroke="black" stroke-width="1"
              d="M 28.83,16.56
                 C 31.34,16.25 33.20,12.22 28.08,10.74
                   23.02,12.64 26.01,16.91 28.83,16.56 Z"/>
         <path  fill="grey" stroke="black" stroke-width="1"
              d="M 14.60,24.79
                 C 18.38,33.37 29.10,23.50 21.85,21.11
                   20.89,21.02 19.03,21.02 18.00,21.11
                   18.00,21.11 14.00,21.11 14.00,21.11
                   14.11,22.28 14.07,23.58 14.60,24.79 Z
                 M 29.00,22.00
                 C 29.00,22.00 31.00,28.00 31.00,28.00
                   31.00,28.00 32.00,22.00 32.00,22.00
                   32.00,22.00 29.00,22.00 29.00,22.00 Z
                 M 32.00,23.00
                 C 32.00,23.00 33.00,24.00 33.00,24.00
                   33.00,24.00 33.00,23.00 33.00,23.00
                   33.00,23.00 32.00,23.00 32.00,23.00 Z" >
              <animateTransform attributeType="xml" attributeName="transform" type="rotate" values="-10 20 13;10 20 13;-10 20 13" dur="1s" repeatCount="indefinite"/>
                  
                    </path>           
  </g>
  
  <clipPath id="gameareaclip">
      <rect x="20" y="20" width="600" height="560"/>
  </clipPath>

  <g id="theBullet">
    <circle cx="5" cy="5" r="5" style="fill:turquoise;">
      <animate attributeName="fill" values="green;white;green" dur="0.2s" repeatCount="indefinite"/>
    </circle>
  </g>
  
  <g id="theMonsterBullet">
    <circle cx="5" cy="5" r="5" style="fill:blue;">
          <animate attributeName="fill" values="blue;red;blue" dur="0.2s" repeatCount="indefinite"/>
    </circle>
  </g>
  
  <g id="theSpecialMonster">
    <path fill="red" stroke="black" stroke-width="1"
                d="M 14.00,36.33
                   C 11.68,36.82 6.68,37.70 5.06,35.40
                     3.34,32.94 6.16,28.33 7.21,26.00
                     10.45,18.80 12.64,7.17 22.00,5.52
                     35.20,3.19 42.03,18.58 33.00,24.00
                     31.49,31.94 20.99,34.85 14.00,36.33 Z"/>
             <path  fill="white" stroke="black" stroke-width="1"
                  d="M 28.83,16.56
                     C 31.34,16.25 33.20,12.22 28.08,10.74
                       23.02,12.64 26.01,16.91 28.83,16.56 Z">
                      <animate attributeName="fill" attributeType="CSS" values="white;purple;white" begin="0s" dur="3s" repeatCount="indefinite"/>
                      </path>
             <path  fill="grey" stroke="black" stroke-width="1"
                  d="M 14.60,24.79
                     C 18.38,33.37 29.10,23.50 21.85,21.11
                       20.89,21.02 19.03,21.02 18.00,21.11
                       18.00,21.11 14.00,21.11 14.00,21.11
                       14.11,22.28 14.07,23.58 14.60,24.79 Z
                     M 29.00,22.00
                     C 29.00,22.00 31.00,28.00 31.00,28.00
                       31.00,28.00 32.00,22.00 32.00,22.00
                       32.00,22.00 29.00,22.00 29.00,22.00 Z
                     M 32.00,23.00
                     C 32.00,23.00 33.00,24.00 33.00,24.00
                       33.00,24.00 33.00,23.00 33.00,23.00
                       33.00,23.00 32.00,23.00 32.00,23.00 Z" >
                  <animateTransform attributeType="xml" attributeName="transform" type="rotate" values="-10 20 13;10 20 13;-10 20 13" dur="1s" repeatCount="indefinite"/>
                      
                    </path>
  </g>
  

  <g id="theGear">
    <path
        fill="grey" stroke="black" stroke-width="1"
                d="M 23.00,4.00
	           C 23.00,4.00 27.00,9.00 27.00,9.00
	             31.88,5.90 32.96,9.67 31.00,14.00
	             31.00,14.00 36.00,17.00 36.00,17.00
	             36.00,17.00 36.00,23.00 36.00,23.00
	             36.00,23.00 31.00,27.00 31.00,27.00
	             34.10,31.88 30.33,32.96 26.00,31.00
	             26.00,31.00 23.00,36.00 23.00,36.00
	             23.00,36.00 17.00,36.00 17.00,36.00
	             17.00,36.00 13.00,31.00 13.00,31.00
	             8.12,34.10 7.04,30.33 9.00,26.00
	             9.00,26.00 4.00,23.00 4.00,23.00
	             4.00,23.00 4.00,17.00 4.00,17.00
	             4.00,17.00 9.00,13.00 9.00,13.00
	             5.90,8.12 9.67,7.04 14.00,9.00
	             14.00,9.00 17.00,4.00 17.00,4.00
	             17.00,4.00 23.00,4.00 23.00,4.00 Z
	           M 20.96,25.46
	           C 26.72,24.45 28.17,14.79 19.04,14.54
             10.57,17.86 15.16,26.48 20.96,25.46 Z" />
             </g>

  <g id="theExit">
    <rect fill="white" stroke="black" stroke-width="1" x="0" y="0" width="40" height="10"/>
    <rect fill="white" stroke="black" stroke-width="1" x="0" y="10" width="20" height="30"/>
    <rect fill="white" stroke="black" stroke-width="1" x="20" y="10" width="20" height="30"/>
    <text fill="green" stroke="black" stroke-width="0" x="20.01006" y="9.39034" id="svg_4" font-size="9" font-family="serif" text-anchor="middle" xml:space="preserve" font-weight="bold">E X I T</text>
  </g>

  <g id="thePortal">
    <rect fill="orange" x="0" y="0" width="10" height="40">
      <animate attributeName="fill" values="orange;blue;orange" dur="2s" repeatCount="indefinite"/>
    </rect>
  </g>

 </defs>

<rect width="100%" height="100%" style="fill:red;stroke:red;stroke-width:3" />

<rect x="20" y="20" width="600" height="560" style="fill:black;stroke:red;stroke-width:4" />

<!-- Add your button here -->
<g transform="translate(640, 60)">
  <text x="70" y="0"
   style="fill:white;font-size:30px;font-weight:bold;text-anchor:middle;font-family:Agency FB;">
   Score
  </text>
  <rect x="0" y="10" width="140" height="40" style="fill:white;stroke:black;stroke-width:2" />
  <text id="scoreCount" x="70" y="36"
   style="fill:black;font-size:25px;font-weight:bold;text-anchor:middle;font-family:Agency FB;">0</text>
</g>

<g transform="translate(640, 160)">
  <text x="70" y="0"
   style="fill:white;font-size:30px;font-weight:bold;text-anchor:middle;font-family:Agency FB;">
   Time
  </text>
  <rect x="0" y="10" width="140" height="40" style="fill:red;stroke:red;stroke-width:2" />
  <rect id="timeCountRect" x="0" y="10" width="140" height="40" style="fill:white;stroke:black;stroke-width:2" />
  <text id="timeCount" x="70" y="36"
   style="fill:black;font-size:25px;font-weight:bold;text-anchor:middle;font-family:Agency FB;">0</text>
</g>

<g transform="translate(640, 260)">
  <text x="70" y="0"
   style="fill:white;font-size:30px;font-weight:bold;text-anchor:middle;font-family:Agency FB;">
   Bullet
  </text>
  <rect x="0" y="10" width="140" height="40" style="fill:white;stroke:black;stroke-width:2" />
  <text id="bulletCount" x="70" y="36"
   style="fill:black;font-size:25px;font-weight:bold;font-family:Agency FB;text-anchor:middle">0</text>
</g>

<g transform="translate(640, 380)">
  <text x="70" y="0"
   style="fill:white;font-size:25px;font-weight:bold;text-anchor:middle">
   Level
  </text>
  <rect x="0" y="10" width="140" height="40" style="fill:white;stroke:black;stroke-width:2" />
  <text id="levelCount" x="70" y="36"
   style="fill:black;font-size:25px;font-weight:bold;text-anchor:middle">1</text>
</g>

<g id="txtCheat" transform="translate(640, 550)" visibility="hidden">
  <text x="70" y="0"
   style="fill:white;font-size:15px;font-weight:bold;text-anchor:middle">
   Cheat Mode Activated
  </text>
</g>

<g style="clip-path:url(#gameareaclip)">
  <g transform="translate(20,20)">
    <g id="gamearea" transform="translate(0,0)" width="600" height="560">
      <rect x="0" y="0" width="600" height="560" style="fill:black" />

      <!-- Add your platforms here -->
      <g id="platforms">
            <rect style="fill:purple" stroke="purple" x="0" y="60" width="60" height="20"/>

            <rect style="fill:purple" stroke="purple" x="40" y="80" width="20" height="20"/>
			<rect style="fill:purple" stroke="purple" x="0" y="80" width="40" height="40"/>

            <rect style="fill:purple" stroke="purple" x="40" y="100" width="220" height="20"/>
            <rect type="disappearing" style="fill:red" stroke="red" opacity="1" x="260" y="100" width="80" height="20"/>
            <rect style="fill:purple" stroke="purple" x="340" y="100" width="160" height="20"/>

			<rect style="fill:purple" stroke="purple" x="220" y="120" width="40" height="20"/>

            <rect style="fill:purple" stroke="purple" x="220" y="140" width="40" height="20"/>
            <rect style="fill:purple" stroke="purple" x="560" y="140" width="40" height="20"/>

            <rect style="fill:purple" stroke="purple" x="220" y="160" width="100" height="20"/>
            <rect style="fill:purple" stroke="purple" x="540" y="160" width="60" height="20"/>

            <rect style="fill:purple" stroke="purple" x="520" y="180" width="80" height="20" />

            <rect id="verticalPlatform" style="fill:palevioletred" stroke="palevioletred" x="80" y="200" width="40" height="20" />
            <rect style="fill:purple" stroke="purple" x="360" y="200" width="80" height="20" />

            
            <rect style="fill:purple" stroke="purple" x="320" y="220" width="140" height="20" />

            <rect style="fill:purple" stroke="purple" x="340" y="240" width="160" height="20" />
            

            <rect style="fill:purple" stroke="purple" x="220" y="260" width="60" height="20" />
            

            <rect style="fill:purple" stroke="purple" x="200" y="280" width="100" height="20" />
            
            <rect style="fill:purple" stroke="purple" x="560" y="280" width="40" height="20" />

            
            <rect style="fill:purple" stroke="purple" x="180" y="300" width="40" height="20" />
            <rect style="fill:purple" stroke="purple" x="280" y="300" width="40" height="20" />
            <rect style="fill:purple" stroke="purple" x="520" y="300" width="80" height="20" />
			<rect style="fill:purple" stroke="purple" x="220" y="300" width="60" height="20" />

            <rect style="fill:purple" stroke="purple" x="0" y="320" width="40" height="20" />
            <rect type="disappearing" style="fill:red" stroke="red" opacity="1" x="40" y="320" width="240" height="20"/>
            <rect style="fill:purple" stroke="purple" x="280" y="320" width="60" height="20" />
            
            <rect style="fill:purple" stroke="purple" width="60" height="20" x="0" y="340"/>
          
            

            <rect style="fill:purple" stroke="purple" x="0" y="360" width="120" height="20" />
            <rect style="fill:purple" stroke="purple" x="380" y="360" width="40" height="20" />
            <rect type="disappearing" style="fill:red" stroke="red" opacity="1" x="420" y="360" width="40" height="20"/>
            <rect style="fill:purple" stroke="purple" x="460" y="360" width="40" height="20" />

            <rect style="fill:purple" stroke="purple" x="0" y="380" width="100" height="20" />

            <rect style="fill:purple" stroke="purple" x="180" y="400" width="60" height="20" />
            <rect style="fill:purple" stroke="purple" x="560" y="400" width="40" height="20" />

            <rect style="fill:purple" stroke="purple" x="160" y="420" width="100" height="20" />
            <rect style="fill:purple" stroke="purple" x="540" y="420" width="60" height="20" />

            <rect style="fill:purple" stroke="purple" x="140" y="440" width="140" height="20" />
            <rect style="fill:purple" stroke="purple" x="520" y="440" width="80" height="20" />
	    <rect style="fill:purple" stroke="purple" x="540" y="440" width="60" height="20" />
	    <rect style="fill:purple" stroke="purple" x="340" y="440" width="20" height="20" />

            <rect style="fill:purple" stroke="purple" x="120" y="460" width="60" height="20" />
            <rect style="fill:purple" stroke="purple" x="320" y="460" width="40" height="20" />

            <rect style="fill:purple" stroke="purple" x="0" y="480" width="40" height="20" />
            
            

            <rect style="fill:purple" stroke="purple" x="0" y="500" width="60" height="20" />

            <rect style="fill:purple" stroke="purple" x="0" y="520" width="80" height="20" />
            <rect style="fill:purple" stroke="purple" x="240" y="520" width="80" height="20" />

            <rect style="fill:purple" stroke="purple" x="0" y="540" width="600" height="20" />
            
   
            

      </g>

      <use x="380" y="140" id="exit" xlink:href="#theExit"/>

      <use x="590" y="100" id="portal1" xlink:href="#thePortal"/>
      <use x="0" y="440" id="portal2" xlink:href="#thePortal"/>

      <text id="txtName" xml:space="preserve" text-anchor="middle" stroke="white" font-size="12">Player</text>
      <use id="player" xlink:href="#thePlayer"/>

      <!-- monsters spawn here -->
      <g id="monsters"></g>

      <!-- bullets spawn here -->
      <g id="bullets"></g>
      
      <!-- monsterbullets spawn here -->
      <g id="monsterbullets"></g>

      <!-- gear spawn here -->
      <g id="gears"></g>

    </g>
  </g>
</g>

<g id="highscoretable" transform="translate(40,40)" visibility="hidden">
  <rect width="520" height="480" style="fill:white;stroke:black;stroke-width:4"/>
  <text x="260" y="30" style="fill:black;font-size:30px;font-weight:bold;font-family:Agency FB;text-anchor:middle">
    High Score Table
  </text>
  <text id="highscoretext" x="260" y="140" style="font-size: 20px;fill:black;font-family:Agency FB;font-weight:bold"></text>
  <g onclick="top.start()" transform="translate(170, 400)">
    <rect x="0" y="0" width="160" height="40" style="fill:white;stroke:black;stroke-width:2" />
    <text x="80" y="28" style="fill:black;stroke-width:2;font-size:16px;text-anchor:middle;font-family:BatmanForeverAlternate;">Start Again</text>
    

  </g>
</g>

<g id="startupscreen" transform="translate(40,40)" visibility="visible">
  <rect width="520" height="480" style="fill:azure;stroke:steelblue;stroke-width:2"/>
  
  <text x="260" y="60" style="fill:red;font-size:30px;font-weight:bold;text-anchor:middle;font-family:Channel;">
    Escape From The Vampire Castle!!
  </text>
  
  <text x="120" y="470" style="font-size: 16px;font-weight: bold" fill="cornflowerblue">
    CHAU YIU LEUNG (ID:20187880)
  </text>
  
  <text x="40" y="100" width="500" style="font-size: 20px;font-weight: bold;font-family:Agency FB;" fill="black">
    <tspan x="40" y="100">You are a robot trapped in the vampire castle!!</tspan>
    <tspan x="40" y="125">Collect all the gear to process to the next level. Each level gets harder</tspan>
	<tspan x="40" y="150">The ghost will try to attack you, don't touch them.</tspan>
	<tspan x="40" y="175">The red ghost can shoot bullets at you, try to evade them.</tspan>
	
	
	<tspan x="40" y="220">How to control:</tspan>
	<tspan x="40" y="250">Move left: A</tspan> <tspan x="200" y="250">Move Right: D</tspan>
    <tspan x="40" y="275">JUMP: W</tspan> <tspan x="200" y="275">Cheat Mode: C</tspan>
	<tspan x="40" y="325">You can kill the monster by using the spacebar.</tspan>
	<tspan x="40" y="350">You only have 8 bullets in any level.</tspan>

  </text>

  <g onclick="top.start()" transform="translate(160, 400)">
    <rect x="0" y="0" width="160" height="40" style="fill:white;stroke:black;stroke-width:2" />
    <text x="80" y="28" style="fill:black;stroke-width:2;font-size:16px;text-anchor:middle;font-family:BatmanForeverAlternate;">Start Escaping</text>
  </g>

</g>

</svg>



